<?xml version="1.0" standalone="no"?><!DOCTYPE svg PUBLIC "-//W3C//DTD SVG 1.1//EN" "http://www.w3.org/Graphics/SVG/1.1/DTD/svg11.dtd"><svg t="1736735622031" class="icon" viewBox="0 0 1024 1024" version="1.1" xmlns="http://www.w3.org/2000/svg" p-id="1671" xmlns:xlink="http://www.w3.org/1999/xlink" width="200" height="200"><path d="M512 0a512 512 0 1 0 512 512A512 512 0 0 0 512 0z m180.906667 692.906667a42.666667 42.666667 0 0 1-60.16 0L512 572.16l-120.746667 120.746667a42.666667 42.666667 0 0 1-60.16-60.16L451.413333 512 330.666667 391.253333a42.666667 42.666667 0 1 1 60.586666-60.16L512 451.413333l120.746667-120.746666a42.666667 42.666667 0 0 1 60.16 60.16L572.16 512l120.746667 120.746667a42.666667 42.666667 0 0 1 0 60.16z" fill="#02BD58" p-id="1672"></path></svg>